<?xml version="1.0" encoding="UTF-8"?>
<svg width="100pt" height="100pt" version="1.1" viewBox="0 0 100 100" xmlns="http://www.w3.org/2000/svg">
 <path d="m50 0c-13.262 0-25.98 5.2695-35.355 14.645s-14.645 22.094-14.645 35.355 5.2695 25.98 14.645 35.355 22.094 14.645 35.355 14.645 25.98-5.2695 35.355-14.645 14.645-22.094 14.645-35.355-5.2695-25.98-14.645-35.355-22.094-14.645-35.355-14.645zm25 50.102c0.015625 1.0859-0.41016 2.1328-1.1797 2.8984l-16.461 16.41c-1.5703 1.5742-4.1211 1.5742-5.6953 0.003906-1.5742-1.5703-1.5742-4.1211-0.003906-5.6953l9.6406-9.6484h-32.301c-2.2109 0-4-1.793-4-4 0-2.2109 1.7891-4 4-4h32.391l-9.7305-9.7305c-1.5742-1.5742-1.5742-4.125 0-5.6992 1.5742-1.5742 4.125-1.5742 5.6992 0l16.461 16.41c0.75781 0.75391 1.1836 1.7812 1.1797 2.8477z"/>
</svg>
